<?xml version="1.0" encoding="UTF-8" standalone="no"?>
<!-- Created with Inkscape (http://www.inkscape.org/) -->

<svg
   width="256"
   height="256"
   viewBox="0 0 67.733332 67.733333"
   version="1.1"
   id="svg1"
   inkscape:version="1.4 (1:1.4+202410161351+e7c3feb100)"
   sodipodi:docname="BPlotter_icon_contours.svg"
   inkscape:export-filename="BPlotter_icon_contours.png"
   inkscape:export-xdpi="96"
   inkscape:export-ydpi="96"
   xmlns:inkscape="http://www.inkscape.org/namespaces/inkscape"
   xmlns:sodipodi="http://sodipodi.sourceforge.net/DTD/sodipodi-0.dtd"
   xmlns="http://www.w3.org/2000/svg"
   xmlns:svg="http://www.w3.org/2000/svg">
  <sodipodi:namedview
     id="namedview1"
     pagecolor="#ffffff"
     bordercolor="#666666"
     borderopacity="1.0"
     inkscape:showpageshadow="2"
     inkscape:pageopacity="0.0"
     inkscape:pagecheckerboard="0"
     inkscape:deskcolor="#d1d1d1"
     inkscape:document-units="mm"
     showgrid="true"
     inkscape:zoom="2"
     inkscape:cx="64.25"
     inkscape:cy="163.5"
     inkscape:window-width="1920"
     inkscape:window-height="945"
     inkscape:window-x="0"
     inkscape:window-y="0"
     inkscape:window-maximized="1"
     inkscape:current-layer="layer1">
    <inkscape:grid
       id="grid1"
       units="mm"
       originx="0"
       originy="0"
       spacingx="0.26458333"
       spacingy="0.26458334"
       empcolor="#0099e5"
       empopacity="0.30196078"
       color="#0099e5"
       opacity="0.14901961"
       empspacing="5"
       enabled="true"
       visible="true"
       snapvisiblegridlinesonly="true" />
  </sodipodi:namedview>
  <defs
     id="defs1" />
  <g
     inkscape:label="Layer 1"
     inkscape:groupmode="layer"
     id="layer1">
    <path
       style="fill:#f40000;fill-opacity:1;stroke:#000000;stroke-width:0.264583px;stroke-linecap:butt;stroke-linejoin:miter;stroke-opacity:1"
       d="m 44.335411,28.492353 c 1.641503,3.590843 3.499669,7.216697 4.070032,11.123534 0.55036,3.769819 0.557941,7.810283 -0.694814,11.408205 -0.877878,2.521272 -2.441695,4.974267 -4.583554,6.567981 -2.517804,1.873446 -5.804945,2.953193 -8.943261,2.942842 -3.519713,-0.01161 -7.257916,-1.170032 -10.008137,-3.366574 -1.909483,-1.525063 -3.05478,-3.937719 -3.815826,-6.259949 -1.046881,-3.194415 -1.547328,-6.75573 -0.865853,-10.047514 0.851823,-4.114633 3.995905,-7.392991 5.979668,-11.097109 1.332266,-2.487632 2.953677,-3.663405 3.977712,-7.473087 1.311065,-4.877506 -0.61948,-15.1392504 -0.61948,-15.1392504 0,0 7.629909,8.2605844 10.805125,12.8774934 1.828446,2.658645 3.356872,5.528817 4.698388,8.463428 z"
       id="path1-9"
       sodipodi:nodetypes="aaaaaaaaascaa" />
    <path
       style="fill:#ff8080;stroke:none;stroke-width:0.065;stroke-linecap:butt;stroke-linejoin:miter;stroke-dasharray:none;stroke-opacity:1;fill-opacity:1"
       d="m 31.664758,22.403868 c -2.36721,3.567034 -3.710387,7.031006 -5.519117,10.570509 -1.348407,2.638698 -3.201535,5.090903 -3.975634,7.951269 -0.502013,1.854981 -0.799916,3.879018 -0.374178,5.752976 0.289188,1.272909 0.634449,3.653734 1.917659,3.414368 1.076151,-0.200742 0.601011,-1.908665 0.467722,-3.250665 -0.243114,-2.447748 0.34437,-4.932123 0.935443,-7.319843 0.812061,-3.280432 2.273004,-6.367776 3.554686,-9.494751 0.783476,-1.91148 1.862638,-3.702918 2.525696,-5.659432 0.216048,-0.6375 0.839922,-2.52528 0.467723,-1.964431 z"
       id="path1"
       sodipodi:nodetypes="saaaasaaas" />
    <path
       style="fill:#be0000;stroke:none;stroke-width:0.065;stroke-linecap:butt;stroke-linejoin:miter;stroke-dasharray:none;stroke-opacity:1;fill-opacity:1"
       d="m 36.18177,18.388541 c 5.503865,6.711596 6.679424,10.46318 8.929688,16.205729 1.168676,2.982397 2.350852,6.123561 2.315104,9.326563 -0.03468,3.107409 -0.943371,6.276439 -2.447396,8.995833 -0.92888,1.679486 -2.332553,3.129507 -3.902604,4.233333 -0.881049,0.619423 -1.966273,1.629931 -2.976562,1.256771 -0.739973,-0.273316 -1.020336,-1.328747 -1.058334,-2.116667 -0.03809,-0.789895 0.452439,-1.531699 0.851871,-2.214223 0.972615,-1.66194 1.924842,-3.139883 2.720004,-4.797235 0.763906,-1.592206 1.710813,-3.082001 1.959612,-4.92219 0.220611,-1.631709 0.288939,-0.476766 0.04746,-3.930003 -0.192238,-2.74908 -0.656076,-3.374129 -1.08103,-5.038432 -0.504065,-1.97414 -1.11865,-3.919113 -1.739854,-5.859581 -0.614255,-1.918758 -1.339611,-3.800556 -1.964313,-5.715939 -0.486561,-1.491832 -0.941983,-2.993781 -1.389062,-4.497917 -0.09147,-0.307727 -0.468152,-1.17428 -0.264583,-0.926042 z"
       id="path2"
       sodipodi:nodetypes="saaaaaasassaaaas" />
    <path
       style="fill:#830000;stroke:none;stroke-width:0.0397555;stroke-linecap:butt;stroke-linejoin:miter;stroke-dasharray:none;stroke-opacity:1;fill-opacity:1"
       d="m 40.086202,26.76926 c 3.011373,4.588781 3.654566,7.153774 4.885771,11.080008 0.639427,2.039093 1.28624,4.186736 1.266681,6.376658 -0.01897,2.124565 -0.516154,4.29126 -1.339063,6.150535 -0.508226,1.14828 -1.276228,2.139673 -2.135263,2.894369 -0.482055,0.423506 -1.075822,1.114399 -1.62859,0.859266 -0.404867,-0.186868 -0.558264,-0.908476 -0.579054,-1.447185 -0.02084,-0.540058 0.247546,-1.047237 0.466091,-1.513885 0.532154,-1.136283 1.053154,-2.146767 1.488217,-3.279914 0.417962,-1.088606 0.936051,-2.107193 1.072178,-3.365347 0.120705,-1.115615 0.158089,-0.325969 0.02597,-2.68698 -0.105181,-1.879571 -0.358964,-2.306923 -0.591472,-3.444823 -0.275793,-1.349737 -0.612056,-2.679534 -0.951941,-4.00625 -0.336082,-1.311872 -0.732952,-2.598475 -1.07475,-3.90804 -0.266216,-1.01998 -0.515394,-2.046876 -0.760008,-3.075268 -0.05005,-0.210396 -0.256144,-0.802866 -0.144764,-0.633144 z"
       id="path2-2"
       sodipodi:nodetypes="saaaaaasassaaaas" />
    <path
       style="fill:#5d0000;stroke:none;stroke-width:0.0280007;stroke-linecap:butt;stroke-linejoin:miter;stroke-dasharray:none;stroke-opacity:1;fill-opacity:1"
       d="m 41.788587,31.364503 c 1.969641,3.480303 2.390332,5.425689 3.195623,8.403491 0.418229,1.546524 0.841288,3.175376 0.828495,4.836295 -0.01241,1.611349 -0.337599,3.254651 -0.875838,4.664795 -0.332413,0.870898 -0.834739,1.622808 -1.396605,2.195197 -0.315296,0.321203 -0.70366,0.845202 -1.065208,0.651699 -0.26481,-0.141727 -0.365142,-0.689022 -0.378741,-1.097598 -0.01363,-0.4096 0.161912,-0.794264 0.304856,-1.148187 0.348064,-0.861799 0.688834,-1.628188 0.973394,-2.487609 0.273375,-0.82564 0.61224,-1.598174 0.701276,-2.552405 0.07895,-0.846124 0.103401,-0.247226 0.01699,-2.037906 -0.0688,-1.425537 -0.234787,-1.749656 -0.386862,-2.612681 -0.180388,-1.023692 -0.400327,-2.032259 -0.622634,-3.03849 -0.21982,-0.994973 -0.4794,-1.97078 -0.702959,-2.964003 -0.174124,-0.773591 -0.337103,-1.552426 -0.497097,-2.332398 -0.03274,-0.159572 -0.167536,-0.608923 -0.09469,-0.4802 z"
       id="path2-2-5"
       sodipodi:nodetypes="saaaaaasassaaaas" />
  </g>
</svg>
